<svg width="30" height="30" viewBox="0 0 30 30" xmlns="http://www.w3.org/2000/svg"><title>Twitter</title><g transform="translate(1 1)" fill="none" fill-rule="evenodd"><path d="M7.235 7.637c1.453 1.815 3.813 3.52 7.304 3.705-.194-.788-.077-2.816 1.444-3.705 1.522-.888 3.147-.948 4.654.467.678-.097 1.943-.632 2.244-.843-.197.74-.98 1.686-1.544 1.91.52 0 1.66-.305 2.01-.486-.486.768-1.333 1.503-1.795 1.808.69 6.075-6.585 14.05-15.553 9.012 1.965.227 4.032-.43 5.24-1.513-1.524-.033-2.96-.786-3.663-2.34.764.235 1.54.186 1.958-.167-.71-.078-3.042-1.196-3.042-3.602.53.432 1.195.617 1.79.498-.972-.565-2.298-2.635-1.048-4.74z" fill="#28BBF8"/><ellipse stroke="#28BBF8" stroke-width="2" cx="14" cy="14" rx="14" ry="14"/></g></svg>