<?xml version="1.0" standalone="no"?>
<!DOCTYPE svg PUBLIC "-//W3C//DTD SVG 20010904//EN"
 "http://www.w3.org/TR/2001/REC-SVG-20010904/DTD/svg10.dtd">
<svg version="1.0" xmlns="http://www.w3.org/2000/svg"
 width="700.000000pt" height="700.000000pt" viewBox="0 0 700.000000 700.000000"
 preserveAspectRatio="xMidYMid meet">
<metadata>
Created by potrace 1.11, written by Peter Selinger 2001-2013
</metadata>
<g transform="translate(0.000000,700.000000) scale(0.100000,-0.100000)"
fill="#000000" stroke="none">
<path d="M4982 6843 c-95 -60 -186 -116 -202 -125 -44 -26 -321 -197 -360
-223 -39 -26 -441 -273 -480 -296 -14 -8 -27 -16 -30 -19 -3 -3 -60 -39 -128
-80 -68 -41 -133 -82 -146 -90 -13 -8 -59 -37 -102 -63 -44 -27 -117 -72 -164
-101 -47 -29 -310 -192 -585 -363 -275 -170 -597 -369 -715 -443 -118 -73
-227 -140 -242 -149 -15 -9 -100 -61 -188 -115 l-160 -99 0 -1502 c0 -1190 3
-1505 12 -1512 7 -5 36 -17 63 -25 28 -9 221 -78 430 -153 365 -131 533 -191
825 -295 74 -26 160 -57 190 -68 30 -11 246 -89 480 -172 370 -132 558 -199
880 -315 41 -15 138 -49 215 -77 158 -56 244 -87 343 -122 455 -165 574 -206
581 -202 7 5 8 2993 1 3000 -4 3 -92 35 -485 176 -44 16 -152 55 -240 86 -244
87 -226 71 -139 124 41 25 83 50 92 55 10 6 57 35 105 65 48 30 95 60 105 65
35 20 98 60 163 101 l66 43 0 1500 c0 826 -3 1501 -6 1501 -4 0 -84 -48 -179
-107z"/>
</g>
</svg>
